<?xml version="1.0" encoding="utf-8"?>
<svg xmlns="http://www.w3.org/2000/svg" xmlns:bx="https://boxy-svg.com">
  <defs>
    <style>.cls-1{fill:#0071bc;}</style>
  </defs>
  <g transform="matrix(0.044418, 1.271953, -1.153144, 0.040268, 31.216761, -0.043127)">
    <title>Layer 1</title>
    <g id="svg_21" class="cls-1" transform="matrix(0.964272, 0.00557, -0.004589, 0.966653, -0.33919, 0.971605)">
      <path id="svg_1" d="M 21.846 14.43 L 21.646 14.43 L 19.298 14.654 L 20.205 15.031 L 19.386 17.745 C 19.386 17.745 19.054 18.649 17.703 18.197 C 17.448 18.125 17.266 17.934 17.235 17.708 L 16.705 14.788 L 9.682 15.314 L 9.572 19.817 L 8.043 27.071 L 5.341 27.071 C 4.897 27.06 4.541 26.751 4.541 26.374 L 4.541 15.371 L 1.063 14.862 L 1.063 14.862 L 0.642 14.222 L 0 13.92 L 21.89 14.466" bx:origin="0.575126 0.011461"/>
      <path id="svg_2" d="M 22 14.446 L 21.8 14.446 L 19.452 14.108 L 20.381 13.768 L 19.674 11 C 19.674 11 19.386 10.076 17.991 10.474 C 17.749 10.546 17.573 10.726 17.525 10.945 L 16.859 13.845 L 9.838 12.979 L 9.838 8.457 L 8.708 1.071 L 5.982 1.071 C 5.546 1.071 5.187 1.359 5.163 1.729 L 4.629 12.751 L 1.107 13.091 L 1.107 13.091 L 0.664 13.731 L 0 13.996 L 21.978 14.522" bx:origin="0.57225 0.966386"/>
    </g>
  </g>
</svg>