<svg id="Layer_1" data-name="Layer 1" xmlns="http://www.w3.org/2000/svg" xmlns:xlink="http://www.w3.org/1999/xlink" viewBox="0 0 244.92 246.05"><defs><style>.cls-1{fill:url(#linear-gradient);}.cls-2,.cls-3{fill:#fff;}.cls-2,.cls-3,.cls-4{stroke:#fff;stroke-miterlimit:10;}.cls-2{stroke-width:0.5px;}.cls-3,.cls-4{stroke-width:0.75px;}.cls-4{fill:none;}</style><linearGradient id="linear-gradient" x1="122.46" y1="224.02" x2="122.46" y2="22.02" gradientUnits="userSpaceOnUse"><stop offset="0" stop-color="#0275ff"/><stop offset="0.56" stop-color="#08c5ff"/></linearGradient></defs><circle class="cls-1" cx="122.46" cy="123.02" r="101"/><path class="cls-2" d="M211.12,97v17.1l-50.37,6.55-30.4.2-4.71,50.26,19.79,1.51a4.24,4.24,0,0,1,3.3,2.66c2.89,7.81-.77,11.5-.77,11.5l-20,3.8-3.49-6.51-1.82,13.31.09-132.67,2.85,5.7c4.75,0,4.75,3.8,4.75,3.8v19l75,.95C207.94,94.18,211.1,94.46,211.12,97Z"/><path class="cls-3" d="M33.79,97v17.1l50.38,6.55,30.4.2,4.71,50.26-19.8,1.51a4.24,4.24,0,0,0-3.29,2.66c-2.89,7.81.77,11.5.77,11.5l19.94,3.8,3.5-6.51,1.81,13.31-.08-132.67-2.85,5.7c-4.75,0-4.75,3.8-4.75,3.8v19l-75,.95C37,94.18,33.81,94.46,33.79,97Z"/><line class="cls-4" x1="104.78" y1="65.22" x2="140.13" y2="65.22"/></svg>