<?xml version="1.0" encoding="UTF-8"?>
<svg xmlns="http://www.w3.org/2000/svg" xmlns:xlink="http://www.w3.org/1999/xlink" width="20pt" height="20pt" viewBox="0 0 20 20" version="1.1">
<defs>
<linearGradient id="linear0" gradientUnits="userSpaceOnUse" x1="122.46" y1="224.02" x2="122.46" y2="22.02" gradientTransform="matrix(0.0816161,0,0,0.0812843,0.00529675,0)">
<stop offset="0" style="stop-color:rgb(0.784314%,45.882353%,100%);stop-opacity:1;"/>
<stop offset="0.56" style="stop-color:rgb(3.137255%,77.254902%,100%);stop-opacity:1;"/>
</linearGradient>
</defs>
<g id="surface1">
<path style=" stroke:none;fill-rule:nonzero;fill:url(#linear0);" d="M 18.242188 10 C 18.242188 14.535156 14.550781 18.210938 10 18.210938 C 5.449219 18.210938 1.757812 14.535156 1.757812 10 C 1.757812 5.464844 5.449219 1.789062 10 1.789062 C 14.550781 1.789062 18.242188 5.464844 18.242188 10 Z M 18.242188 10 "/>
<path style="fill-rule:nonzero;fill:rgb(100%,100%,100%);fill-opacity:1;stroke-width:0.5;stroke-linecap:butt;stroke-linejoin:miter;stroke:rgb(100%,100%,100%);stroke-opacity:1;stroke-miterlimit:10;" d="M 211.099106 96.978301 L 211.099106 114.086465 L 160.749031 120.670225 L 130.357113 120.862451 L 125.618845 171.129697 L 145.433418 172.619453 C 146.917118 172.859736 148.161512 173.868926 148.735847 175.262568 C 151.607525 183.095801 147.970067 186.796162 147.970067 186.796162 L 127.964048 190.592637 L 124.470174 184.056934 L 122.651445 197.368623 L 122.747168 64.732295 L 125.570984 70.402979 C 130.357113 70.402979 130.357113 74.199453 130.357113 74.199453 L 130.357113 93.229883 L 205.355752 94.142959 C 207.940261 94.191016 211.099106 94.479355 211.099106 96.978301 Z M 211.099106 96.978301 " transform="matrix(0.0816161,0,0,0.0812843,0.00529675,0)"/>
<path style="fill-rule:nonzero;fill:rgb(100%,100%,100%);fill-opacity:1;stroke-width:0.75;stroke-linecap:butt;stroke-linejoin:miter;stroke:rgb(100%,100%,100%);stroke-opacity:1;stroke-miterlimit:10;" d="M 33.773033 96.978301 L 33.773033 114.086465 L 84.170969 120.670225 L 114.562887 120.862451 L 119.301155 171.129697 L 99.486582 172.619453 C 98.002882 172.859736 96.710627 173.868926 96.184153 175.262568 C 93.312475 183.095801 96.949933 186.796162 96.949933 186.796162 L 116.908091 190.592637 L 120.401965 184.056934 L 122.220694 197.368623 L 122.124971 64.732295 L 119.301155 70.402979 C 114.515026 70.402979 114.515026 74.199453 114.515026 74.199453 L 114.515026 93.229883 L 39.516387 94.142959 C 36.979739 94.191016 33.820894 94.479355 33.773033 96.978301 Z M 33.773033 96.978301 " transform="matrix(0.0816161,0,0,0.0812843,0.00529675,0)"/>
<path style="fill:none;stroke-width:0.75;stroke-linecap:butt;stroke-linejoin:miter;stroke:rgb(100%,100%,100%);stroke-opacity:1;stroke-miterlimit:10;" d="M 104.799185 65.212861 L 140.120815 65.212861 " transform="matrix(0.0816161,0,0,0.0812843,0.00529675,0)"/>
</g>
</svg>
