<svg id="Layer_1" data-name="Layer 1" xmlns="http://www.w3.org/2000/svg" viewBox="0 0 58.24 58.24"><defs><style>.cls-1,.cls-10,.cls-11,.cls-12,.cls-13,.cls-14,.cls-15,.cls-16,.cls-17,.cls-18,.cls-2,.cls-3,.cls-4,.cls-5,.cls-6,.cls-7,.cls-8,.cls-9{fill:#0071bc;}.cls-2{opacity:0.1;}.cls-3{opacity:0.15;}.cls-4{opacity:0.21;}.cls-5{opacity:0.26;}.cls-6{opacity:0.31;}.cls-7{opacity:0.36;}.cls-8{opacity:0.42;}.cls-9{opacity:0.47;}.cls-10{opacity:0.52;}.cls-11{opacity:0.58;}.cls-12{opacity:0.63;}.cls-13{opacity:0.68;}.cls-14{opacity:0.74;}.cls-15{opacity:0.79;}.cls-16{opacity:0.84;}.cls-17{opacity:0.89;}.cls-18{opacity:0.95;}</style></defs><path class="cls-1" d="M34.93,43.66h-.09l-1.06.12.41.2-.37,1.44s-.15.48-.76.24a.31.31,0,0,1-.21-.26l-.24-1.55-3.17.28-.05,2.39-.69,3.85-1.22,0a.37.37,0,0,1-.36-.37l0-5.84-1.57-.27h0l-.19-.34-.29-.16,9.88.29"/><path class="cls-1" d="M35,43.67l-.09,0-1.06-.18.42-.18-.32-1.47s-.13-.49-.76-.28a.33.33,0,0,0-.21.25l-.3,1.54-3.17-.46,0-2.4L29,36.57l-1.23,0a.37.37,0,0,0-.37.35l-.24,5.85-1.59.18h0l-.2.34-.3.14,9.92.28"/><circle class="cls-2" cx="13.35" cy="36.15" r="1.03"/><circle class="cls-3" cx="11.24" cy="31.34" r="1.09"/><circle class="cls-4" cx="10.57" cy="26.3" r="1.15"/><circle class="cls-5" cx="11.28" cy="21.33" r="1.21"/><circle class="cls-6" cx="13.29" cy="16.73" r="1.27"/><circle class="cls-7" cx="16.55" cy="12.77" r="1.33"/><circle class="cls-8" cx="20.93" cy="9.76" r="1.39"/><circle class="cls-9" cx="25.85" cy="8.14" r="1.45"/><circle class="cls-10" cx="30.9" cy="7.94" r="1.51"/><circle class="cls-11" cx="35.78" cy="9.09" r="1.58"/><circle class="cls-12" cx="40.2" cy="11.53" r="1.64"/><circle class="cls-13" cx="43.88" cy="15.17" r="1.7"/><circle class="cls-14" cx="46.46" cy="19.82" r="1.76"/><circle class="cls-15" cx="47.6" cy="24.82" r="1.82"/><circle class="cls-16" cx="47.34" cy="29.84" r="1.88"/><circle class="cls-17" cx="45.76" cy="34.6" r="1.94"/><circle class="cls-18" cx="42.91" cy="38.8" r="2"/><circle class="cls-1" cx="38.87" cy="42.17" r="2.06"/></svg>